<?xml version="1.0" encoding="iso-8859-1"?>
<!-- Generator: Adobe Illustrator 19.0.0, SVG Export Plug-In . SVG Version: 6.00 Build 0)  -->
<svg version="1.1" id="Layer_1" xmlns="http://www.w3.org/2000/svg" xmlns:xlink="http://www.w3.org/1999/xlink" x="0px" y="0px"
	 viewBox="0 0 512 512" style="enable-background:new 0 0 512 512;" xml:space="preserve">
<g transform="translate(1 1)">
	<g>
		<path style="fill:#E2E3E5;" d="M255,511c-5.207,0-8.678-3.471-8.678-8.678V250.661c0-5.207,3.471-8.678,8.678-8.678
			s8.678,3.471,8.678,8.678v251.661C263.678,507.529,260.207,511,255,511z"/>
		<path style="fill:#E2E3E5;" d="M393.847,129.169c0,66.82-54.671,121.492-121.492,121.492S150.864,195.99,150.864,129.169
			S205.536,7.678,272.356,7.678S393.847,62.349,393.847,129.169"/>
	</g>
	<path style="fill:#CCCCCC;" d="M367.814,129.169c0,66.82-54.671,121.492-121.492,121.492S124.831,195.99,124.831,129.169
		S179.502,7.678,246.322,7.678S367.814,62.349,367.814,129.169"/>
	<path style="fill:#E2E3E5;" d="M341.78,129.169c0,66.82-48.597,121.492-108.475,121.492S124.831,195.99,124.831,129.169
		S173.427,7.678,233.305,7.678S341.78,62.349,341.78,129.169"/>
	<path style="fill:#F0F0F0;" d="M228.966,94.458c0,14.753-11.281,26.034-26.034,26.034c-14.753,0-26.034-11.281-26.034-26.034
		s11.281-26.034,26.034-26.034C217.685,68.424,228.966,79.705,228.966,94.458"/>
	<path style="fill:#FFFFFF;" d="M246.322,250.661c2.603,0,4.339,0,6.942,0c-57.275-4.339-102.4-56.407-102.4-121.492
		S195.99,12.017,253.264,7.678c-2.603,0-4.339,0-6.942,0c-66.82,0-121.492,54.671-121.492,121.492S179.502,250.661,246.322,250.661"
		/>
	<g>
		<path style="fill:#B6B6B6;" d="M246.322,259.339c-72.027,0-130.169-58.142-130.169-130.169S174.295-1,246.322-1
			s130.169,58.142,130.169,130.169S318.349,259.339,246.322,259.339z M246.322,16.356c-62.481,0-112.814,50.332-112.814,112.814
			s50.332,112.814,112.814,112.814s112.814-50.332,112.814-112.814S308.803,16.356,246.322,16.356z"/>
		<path style="fill:#B6B6B6;" d="M202.932,129.169c-19.092,0-34.712-15.62-34.712-34.712s15.62-34.712,34.712-34.712
			s34.712,15.62,34.712,34.712S222.024,129.169,202.932,129.169z M202.932,77.102c-9.546,0-17.356,7.81-17.356,17.356
			s7.81,17.356,17.356,17.356s17.356-7.81,17.356-17.356S212.478,77.102,202.932,77.102z"/>
		<path style="fill:#B6B6B6;" d="M246.322,511c-5.207,0-8.678-3.471-8.678-8.678V250.661c0-5.207,3.471-8.678,8.678-8.678
			s8.678,3.471,8.678,8.678v251.661C255,507.529,251.529,511,246.322,511z"/>
	</g>
</g>
<g>
</g>
<g>
</g>
<g>
</g>
<g>
</g>
<g>
</g>
<g>
</g>
<g>
</g>
<g>
</g>
<g>
</g>
<g>
</g>
<g>
</g>
<g>
</g>
<g>
</g>
<g>
</g>
<g>
</g>
</svg>
